<?xml version="1.0" standalone="no"?><svg xmlns="http://www.w3.org/2000/svg" viewBox="0 0 1440 320"><path fill="#ff5500" fill-opacity="0.4" d="M0,64L20,85.3C40,107,80,149,120,154.7C160,160,200,128,240,96C280,64,320,32,360,53.3C400,75,440,149,480,192C520,235,560,245,600,208C640,171,680,85,720,69.3C760,53,800,107,840,106.7C880,107,920,53,960,48C1000,43,1040,85,1080,112C1120,139,1160,149,1200,154.7C1240,160,1280,160,1320,144C1360,128,1400,96,1420,80L1440,64L1440,320L1420,320C1400,320,1360,320,1320,320C1280,320,1240,320,1200,320C1160,320,1120,320,1080,320C1040,320,1000,320,960,320C920,320,880,320,840,320C800,320,760,320,720,320C680,320,640,320,600,320C560,320,520,320,480,320C440,320,400,320,360,320C320,320,280,320,240,320C200,320,160,320,120,320C80,320,40,320,20,320L0,320Z"></path></svg>