<?xml version="1.0" standalone="no"?><svg xmlns="http://www.w3.org/2000/svg" viewBox="0 0 1440 320"><path fill="#ff5500" fill-opacity="0.35" d="M0,224L7.1,224C14.1,224,28,224,42,224C56.5,224,71,224,85,240C98.8,256,113,288,127,256C141.2,224,155,128,169,90.7C183.5,53,198,75,212,101.3C225.9,128,240,160,254,176C268.2,192,282,192,296,165.3C310.6,139,325,85,339,101.3C352.9,117,367,203,381,218.7C395.3,235,409,181,424,160C437.6,139,452,149,466,149.3C480,149,494,139,508,144C522.4,149,536,171,551,170.7C564.7,171,579,149,593,138.7C607.1,128,621,128,635,128C649.4,128,664,128,678,106.7C691.8,85,706,43,720,42.7C734.1,43,748,85,762,96C776.5,107,791,85,805,106.7C818.8,128,833,192,847,186.7C861.2,181,875,107,889,112C903.5,117,918,203,932,208C945.9,213,960,139,974,96C988.2,53,1002,43,1016,74.7C1030.6,107,1045,181,1059,208C1072.9,235,1087,213,1101,186.7C1115.3,160,1129,128,1144,128C1157.6,128,1172,160,1186,160C1200,160,1214,128,1228,138.7C1242.4,149,1256,203,1271,208C1284.7,213,1299,171,1313,181.3C1327.1,192,1341,256,1355,288C1369.4,320,1384,320,1398,272C1411.8,224,1426,128,1433,80L1440,32L1440,0L1432.9,0C1425.9,0,1412,0,1398,0C1383.5,0,1369,0,1355,0C1341.2,0,1327,0,1313,0C1298.8,0,1285,0,1271,0C1256.5,0,1242,0,1228,0C1214.1,0,1200,0,1186,0C1171.8,0,1158,0,1144,0C1129.4,0,1115,0,1101,0C1087.1,0,1073,0,1059,0C1044.7,0,1031,0,1016,0C1002.4,0,988,0,974,0C960,0,946,0,932,0C917.6,0,904,0,889,0C875.3,0,861,0,847,0C832.9,0,819,0,805,0C790.6,0,776,0,762,0C748.2,0,734,0,720,0C705.9,0,692,0,678,0C663.5,0,649,0,635,0C621.2,0,607,0,593,0C578.8,0,565,0,551,0C536.5,0,522,0,508,0C494.1,0,480,0,466,0C451.8,0,438,0,424,0C409.4,0,395,0,381,0C367.1,0,353,0,339,0C324.7,0,311,0,296,0C282.4,0,268,0,254,0C240,0,226,0,212,0C197.6,0,184,0,169,0C155.3,0,141,0,127,0C112.9,0,99,0,85,0C70.6,0,56,0,42,0C28.2,0,14,0,7,0L0,0Z"></path></svg>