<?xml version="1.0" standalone="no"?><svg xmlns="http://www.w3.org/2000/svg" viewBox="0 0 1440 320"><path fill="#ffcba4" fill-opacity="0.4" d="M0,192L26.7,170.7C53.3,149,107,107,160,101.3C213.3,96,267,128,320,160C373.3,192,427,224,480,234.7C533.3,245,587,235,640,218.7C693.3,203,747,181,800,160C853.3,139,907,117,960,122.7C1013.3,128,1067,160,1120,186.7C1173.3,213,1227,235,1280,256C1333.3,277,1387,299,1413,309.3L1440,320L1440,0L1413.3,0C1386.7,0,1333,0,1280,0C1226.7,0,1173,0,1120,0C1066.7,0,1013,0,960,0C906.7,0,853,0,800,0C746.7,0,693,0,640,0C586.7,0,533,0,480,0C426.7,0,373,0,320,0C266.7,0,213,0,160,0C106.7,0,53,0,27,0L0,0Z"></path></svg>