<?xml version="1.0" standalone="no"?><svg xmlns="http://www.w3.org/2000/svg" viewBox="0 0 1440 320"><path fill="#ff5500" fill-opacity="0.35" d="M0,288L24,261.3C48,235,96,181,144,160C192,139,240,149,288,165.3C336,181,384,203,432,208C480,213,528,203,576,181.3C624,160,672,128,720,133.3C768,139,816,181,864,197.3C912,213,960,203,1008,186.7C1056,171,1104,149,1152,170.7C1200,192,1248,256,1296,250.7C1344,245,1392,171,1416,133.3L1440,96L1440,0L1416,0C1392,0,1344,0,1296,0C1248,0,1200,0,1152,0C1104,0,1056,0,1008,0C960,0,912,0,864,0C816,0,768,0,720,0C672,0,624,0,576,0C528,0,480,0,432,0C384,0,336,0,288,0C240,0,192,0,144,0C96,0,48,0,24,0L0,0Z"></path></svg>